<svg width="873" height="279" viewBox="0 0 873 279" fill="none" xmlns="http://www.w3.org/2000/svg">
<path d="M542.118 35.5005V6.0009H530.519V0.500977H560.218V6.0009H548.618V35.5005H542.118Z" fill="#E0E0E0"/>
<path d="M512.781 35.9995C510.115 35.9995 507.631 35.5662 505.331 34.6995C503.065 33.7995 501.081 32.5496 499.381 30.9496C497.715 29.3163 496.415 27.3996 495.482 25.1997C494.548 22.9997 494.082 20.5997 494.082 17.9998C494.082 15.3998 494.548 12.9998 495.482 10.7999C496.415 8.59988 497.731 6.69991 499.431 5.09993C501.131 3.46662 503.115 2.21664 505.381 1.34998C507.648 0.449993 510.131 0 512.831 0C515.698 0 518.315 0.499993 520.681 1.49998C523.048 2.46663 525.048 3.91661 526.681 5.84992L522.481 9.79987C521.215 8.43322 519.798 7.41657 518.231 6.74991C516.665 6.04992 514.965 5.69992 513.131 5.69992C511.298 5.69992 509.615 5.99992 508.081 6.59991C506.581 7.1999 505.265 8.04989 504.131 9.14988C503.031 10.2499 502.165 11.5498 501.531 13.0498C500.931 14.5498 500.631 16.1998 500.631 17.9998C500.631 19.7997 500.931 21.4497 501.531 22.9497C502.165 24.4497 503.031 25.7496 504.131 26.8496C505.265 27.9496 506.581 28.7996 508.081 29.3996C509.615 29.9996 511.298 30.2996 513.131 30.2996C514.965 30.2996 516.665 29.9663 518.231 29.2996C519.798 28.5996 521.215 27.5496 522.481 26.1496L526.681 30.1496C525.048 32.0496 523.048 33.4995 520.681 34.4995C518.315 35.4995 515.681 35.9995 512.781 35.9995Z" fill="#E0E0E0"/>
<path d="M466.586 15.0508H483.986V20.4007H466.586V15.0508ZM467.086 30.0506H486.836V35.5005H460.586V0.500977H486.136V5.9509H467.086V30.0506Z" fill="#E0E0E0"/>
<path d="M437.17 36.0005C434.937 36.0005 432.871 35.5672 430.971 34.7005C429.104 33.8339 427.571 32.5839 426.371 30.9506L430.071 26.5006C431.037 27.8339 432.087 28.8339 433.221 29.5006C434.387 30.1672 435.654 30.5006 437.02 30.5006C440.654 30.5006 442.47 28.3506 442.47 24.0507V5.9509H430.021V0.500977H448.97V23.7007C448.97 27.8339 447.954 30.9172 445.92 32.9505C443.92 34.9838 441.004 36.0005 437.17 36.0005Z" fill="#E0E0E0"/>
<path d="M404.263 35.9995C401.53 35.9995 399.013 35.5495 396.713 34.6495C394.413 33.7495 392.413 32.4996 390.713 30.8996C389.013 29.2663 387.697 27.3663 386.763 25.1997C385.83 22.9997 385.363 20.5997 385.363 17.9998C385.363 15.3998 385.83 13.0165 386.763 10.8499C387.697 8.64988 389.013 6.74991 390.713 5.14993C392.413 3.51662 394.413 2.24997 396.713 1.34998C399.013 0.449993 401.513 0 404.213 0C406.946 0 409.446 0.449993 411.713 1.34998C414.013 2.24997 416.013 3.51662 417.713 5.14993C419.413 6.74991 420.729 8.64988 421.663 10.8499C422.596 13.0165 423.063 15.3998 423.063 17.9998C423.063 20.5997 422.596 22.9997 421.663 25.1997C420.729 27.3996 419.413 29.2996 417.713 30.8996C416.013 32.4996 414.013 33.7495 411.713 34.6495C409.446 35.5495 406.963 35.9995 404.263 35.9995ZM404.213 30.2996C405.98 30.2996 407.613 29.9996 409.113 29.3996C410.613 28.7996 411.913 27.9496 413.013 26.8496C414.113 25.7163 414.963 24.4163 415.563 22.9497C416.196 21.4497 416.513 19.7997 416.513 17.9998C416.513 16.1998 416.196 14.5665 415.563 13.0998C414.963 11.5998 414.113 10.2999 413.013 9.19988C411.913 8.06656 410.613 7.1999 409.113 6.59991C407.613 5.99992 405.98 5.69992 404.213 5.69992C402.446 5.69992 400.813 5.99992 399.313 6.59991C397.846 7.1999 396.546 8.06656 395.413 9.19988C394.313 10.2999 393.447 11.5998 392.813 13.0998C392.213 14.5665 391.913 16.1998 391.913 17.9998C391.913 19.7664 392.213 21.3997 392.813 22.8997C393.447 24.3997 394.313 25.7163 395.413 26.8496C396.513 27.9496 397.813 28.7996 399.313 29.3996C400.813 29.9996 402.446 30.2996 404.213 30.2996Z" fill="#E0E0E0"/>
<path d="M348.79 35.5005V0.500977H363.189C366.289 0.500977 368.939 1.00097 371.139 2.00096C373.373 3.00094 375.089 4.43426 376.289 6.3009C377.489 8.16754 378.089 10.3842 378.089 12.9508C378.089 15.5174 377.489 17.7341 376.289 19.6007C375.089 21.434 373.373 22.8507 371.139 23.8507C368.939 24.8173 366.289 25.3006 363.189 25.3006H352.39L355.289 22.3507V35.5005H348.79ZM371.689 35.5005L362.839 22.8007H369.789L378.689 35.5005H371.689ZM355.289 23.0507L352.39 19.9507H362.889C365.756 19.9507 367.906 19.3341 369.339 18.1007C370.806 16.8674 371.539 15.1508 371.539 12.9508C371.539 10.7175 370.806 9.00086 369.339 7.80088C367.906 6.60089 365.756 6.0009 362.889 6.0009H352.39L355.289 2.80095V23.0507Z" fill="#E0E0E0"/>
<path d="M310.5 35.5005V0.500977H324.9C328 0.500977 330.65 1.00097 332.85 2.00096C335.083 3.00094 336.8 4.43426 338 6.3009C339.2 8.16754 339.8 10.3842 339.8 12.9508C339.8 15.5174 339.2 17.7341 338 19.6007C336.8 21.4674 335.083 22.9007 332.85 23.9007C330.65 24.9006 328 25.4006 324.9 25.4006H314.1L317 22.3507V35.5005H310.5ZM317 23.0507L314.1 19.9007H324.6C327.466 19.9007 329.616 19.3007 331.05 18.1007C332.516 16.8674 333.25 15.1508 333.25 12.9508C333.25 10.7175 332.516 9.00086 331.05 7.80088C329.616 6.60089 327.466 6.0009 324.6 6.0009H314.1L317 2.80095V23.0507Z" fill="#E0E0E0"/>
<path d="M751.673 198C742.345 198 733.343 196.861 724.666 194.584C716.097 192.197 709.102 189.161 703.679 185.473L714.254 161.72C719.351 164.974 725.208 167.685 731.824 169.855C738.549 171.915 745.219 172.946 751.835 172.946C756.282 172.946 759.861 172.566 762.573 171.807C765.284 170.939 767.237 169.855 768.43 168.553C769.731 167.143 770.382 165.516 770.382 163.672C770.382 161.069 769.189 159.009 766.803 157.49C764.417 155.972 761.326 154.724 757.529 153.748C753.733 152.772 749.503 151.796 744.84 150.82C740.284 149.844 735.675 148.596 731.011 147.078C726.455 145.559 722.28 143.607 718.484 141.221C714.687 138.726 711.596 135.527 709.21 131.622C706.824 127.609 705.631 122.566 705.631 116.492C705.631 109.659 707.475 103.477 711.163 97.9451C714.959 92.4136 720.599 87.9667 728.082 84.6045C735.566 81.2422 744.894 79.561 756.065 79.561C763.549 79.561 770.87 80.4287 778.029 82.1641C785.295 83.791 791.749 86.2314 797.389 89.4852L787.465 113.401C782.042 110.472 776.673 108.303 771.358 106.893C766.044 105.375 760.892 104.615 755.903 104.615C751.456 104.615 747.876 105.104 745.165 106.08C742.453 106.947 740.501 108.14 739.308 109.659C738.115 111.177 737.518 112.913 737.518 114.865C737.518 117.36 738.657 119.366 740.935 120.885C743.321 122.295 746.412 123.488 750.208 124.464C754.113 125.331 758.343 126.253 762.898 127.23C767.562 128.206 772.172 129.453 776.727 130.971C781.391 132.381 785.621 134.334 789.417 136.828C793.213 139.214 796.25 142.414 798.528 146.427C800.914 150.332 802.107 155.267 802.107 161.232C802.107 167.848 800.209 173.976 796.413 179.616C792.725 185.148 787.139 189.594 779.655 192.957C772.28 196.319 762.952 198 751.673 198Z" fill="#CC4331"/>
<path d="M623.359 198C614.248 198 605.842 196.536 598.141 193.607C590.441 190.679 583.716 186.558 577.968 181.243C572.328 175.82 567.935 169.529 564.79 162.371C561.644 155.212 560.072 147.349 560.072 138.781C560.072 130.212 561.644 122.349 564.79 115.19C567.935 108.032 572.328 101.795 577.968 96.4809C583.716 91.0579 590.441 86.8821 598.141 83.9537C605.842 81.0253 614.248 79.561 623.359 79.561C632.578 79.561 640.983 81.0253 648.576 83.9537C656.276 86.8821 662.947 91.0579 668.587 96.4809C674.227 101.795 678.619 108.032 681.765 115.19C685.018 122.349 686.645 130.212 686.645 138.781C686.645 147.349 685.018 155.267 681.765 162.533C678.619 169.692 674.227 175.928 668.587 181.243C662.947 186.558 656.276 190.679 648.576 193.607C640.983 196.536 632.578 198 623.359 198ZM623.359 171.319C627.697 171.319 631.71 170.56 635.398 169.041C639.194 167.523 642.448 165.353 645.159 162.533C647.979 159.605 650.148 156.134 651.667 152.121C653.294 148.108 654.107 143.661 654.107 138.781C654.107 133.791 653.294 129.345 651.667 125.44C650.148 121.427 647.979 118.01 645.159 115.19C642.448 112.262 639.194 110.038 635.398 108.52C631.71 107.002 627.697 106.242 623.359 106.242C619.02 106.242 614.953 107.002 611.157 108.52C607.469 110.038 604.215 112.262 601.395 115.19C598.684 118.01 596.515 121.427 594.888 125.44C593.369 129.345 592.61 133.791 592.61 138.781C592.61 143.661 593.369 148.108 594.888 152.121C596.515 156.134 598.684 159.605 601.395 162.533C604.215 165.353 607.469 167.523 611.157 169.041C614.953 170.56 619.02 171.319 623.359 171.319Z" fill="#CC4331"/>
<path d="M432.758 195.724V81.8398H491.001C505.969 81.8398 517.14 84.6056 524.516 90.1371C531.891 95.5601 535.579 102.719 535.579 111.612C535.579 117.469 534.006 122.621 530.861 127.068C527.824 131.406 523.485 134.877 517.845 137.48C512.314 139.975 505.698 141.222 497.997 141.222L501.251 133.413C509.277 133.413 516.273 134.66 522.238 137.155C528.203 139.541 532.813 143.066 536.067 147.73C539.429 152.285 541.11 157.871 541.11 164.487C541.11 174.357 537.097 182.058 529.071 187.589C521.153 193.012 509.548 195.724 494.255 195.724H432.758ZM464.645 172.459H491.652C497.183 172.459 501.359 171.537 504.179 169.693C507.108 167.741 508.572 164.812 508.572 160.908C508.572 157.003 507.108 154.129 504.179 152.285C501.359 150.333 497.183 149.357 491.652 149.357H462.368V127.068H486.771C492.194 127.068 496.262 126.146 498.973 124.302C501.685 122.458 503.04 119.693 503.04 116.005C503.04 112.317 501.685 109.606 498.973 107.87C496.262 106.027 492.194 105.105 486.771 105.105H464.645V172.459Z" fill="#CC4331"/>
<path d="M344.924 125.929H397.798V150.007H344.924V125.929ZM347.201 170.832H406.746V195.724H315.314V81.8398H404.631V106.732H347.201V170.832Z" fill="#CC4331"/>
<path d="M186.75 195.724V81.8398H238.811C249.223 81.8398 258.171 83.521 265.655 86.8833C273.247 90.2456 279.104 95.1263 283.226 101.525C287.347 107.816 289.408 115.3 289.408 123.977C289.408 132.545 287.347 139.975 283.226 146.266C279.104 152.448 273.247 157.22 265.655 160.582C258.171 163.836 249.223 165.463 238.811 165.463H204.646L218.963 151.96V195.724H186.75ZM257.195 195.724L228.887 154.237H263.215L291.686 195.724H257.195ZM218.963 155.376L204.646 140.571H236.859C243.583 140.571 248.573 139.107 251.826 136.179C255.189 133.25 256.87 129.183 256.87 123.977C256.87 118.662 255.189 114.541 251.826 111.612C248.573 108.684 243.583 107.22 236.859 107.22H204.646L218.963 92.4148V155.376Z" fill="#CC4331"/>
<path d="M98.9179 125.929H151.792V150.007H98.9179V125.929ZM101.196 170.832H160.74V195.724H69.3081V81.8398H158.625V106.732H101.196V170.832Z" fill="#CC4331"/>
<path d="M655.93 278.5V243.501H661.28L683.229 270.451H680.579V243.501H687.029V278.5H681.679L659.73 251.551H662.38V278.5H655.93Z" fill="#E0E0E0"/>
<path d="M627.74 279C625.007 279 622.49 278.55 620.19 277.65C617.89 276.75 615.89 275.5 614.19 273.9C612.49 272.266 611.174 270.366 610.24 268.2C609.307 266 608.84 263.6 608.84 261C608.84 258.4 609.307 256.016 610.24 253.85C611.174 251.65 612.49 249.75 614.19 248.15C615.89 246.517 617.89 245.25 620.19 244.35C622.49 243.45 624.99 243 627.69 243C630.423 243 632.923 243.45 635.19 244.35C637.49 245.25 639.49 246.517 641.19 248.15C642.89 249.75 644.206 251.65 645.14 253.85C646.073 256.016 646.54 258.4 646.54 261C646.54 263.6 646.073 266 645.14 268.2C644.206 270.4 642.89 272.3 641.19 273.9C639.49 275.5 637.49 276.75 635.19 277.65C632.923 278.55 630.44 279 627.74 279ZM627.69 273.3C629.457 273.3 631.09 273 632.59 272.4C634.09 271.8 635.39 270.95 636.49 269.85C637.59 268.716 638.44 267.416 639.04 265.95C639.673 264.45 639.99 262.8 639.99 261C639.99 259.2 639.673 257.566 639.04 256.1C638.44 254.6 637.59 253.3 636.49 252.2C635.39 251.067 634.09 250.2 632.59 249.6C631.09 249 629.457 248.7 627.69 248.7C625.923 248.7 624.29 249 622.79 249.6C621.323 250.2 620.023 251.067 618.89 252.2C617.79 253.3 616.924 254.6 616.29 256.1C615.69 257.566 615.39 259.2 615.39 261C615.39 262.766 615.69 264.4 616.29 265.9C616.924 267.4 617.79 268.716 618.89 269.85C619.99 270.95 621.29 271.8 622.79 272.4C624.29 273 625.923 273.3 627.69 273.3Z" fill="#E0E0E0"/>
<path d="M592.873 278.5V243.501H599.373V278.5H592.873Z" fill="#E0E0E0"/>
<path d="M567.396 278.5V249.001H555.796V243.501H585.496V249.001H573.896V278.5H567.396Z" fill="#E0E0E0"/>
<path d="M517.155 278.5L532.905 243.501H539.305L555.105 278.5H548.305L534.755 246.951H537.355L523.855 278.5H517.155ZM524.405 270.401L526.155 265.301H545.055L546.805 270.401H524.405Z" fill="#E0E0E0"/>
<path d="M478.784 278.5V243.501H494.084C497.884 243.501 501.217 244.234 504.084 245.701C506.95 247.168 509.184 249.201 510.784 251.801C512.384 254.401 513.184 257.467 513.184 261.001C513.184 264.501 512.384 267.567 510.784 270.201C509.184 272.801 506.95 274.834 504.084 276.301C501.217 277.767 497.884 278.5 494.084 278.5H478.784ZM485.284 273.001H493.784C496.417 273.001 498.684 272.501 500.584 271.501C502.517 270.501 504.001 269.101 505.034 267.301C506.1 265.501 506.634 263.401 506.634 261.001C506.634 258.567 506.1 256.467 505.034 254.701C504.001 252.901 502.517 251.501 500.584 250.501C498.684 249.501 496.417 249.001 493.784 249.001H485.284V273.001Z" fill="#E0E0E0"/>
<path d="M435.806 278.5V243.501H441.156L463.105 270.451H460.455V243.501H466.905V278.5H461.555L439.606 251.551H442.256V278.5H435.806Z" fill="#E0E0E0"/>
<path d="M408.902 279C404.102 279 400.335 277.651 397.602 274.951C394.902 272.251 393.552 268.351 393.552 263.251V243.501H400.052V263.001C400.052 266.601 400.819 269.217 402.352 270.851C403.919 272.484 406.119 273.301 408.952 273.301C411.785 273.301 413.969 272.484 415.502 270.851C417.035 269.217 417.802 266.601 417.802 263.001V243.501H424.202V263.251C424.202 268.351 422.835 272.251 420.102 274.951C417.402 277.651 413.669 279 408.902 279Z" fill="#E0E0E0"/>
<path d="M365.663 279C362.93 279 360.413 278.55 358.114 277.65C355.814 276.75 353.814 275.5 352.114 273.9C350.414 272.266 349.097 270.366 348.164 268.2C347.23 266 346.764 263.6 346.764 261C346.764 258.4 347.23 256.016 348.164 253.85C349.097 251.65 350.414 249.75 352.114 248.15C353.814 246.517 355.814 245.25 358.114 244.35C360.413 243.45 362.913 243 365.613 243C368.347 243 370.847 243.45 373.113 244.35C375.413 245.25 377.413 246.517 379.113 248.15C380.813 249.75 382.13 251.65 383.063 253.85C383.997 256.016 384.463 258.4 384.463 261C384.463 263.6 383.997 266 383.063 268.2C382.13 270.4 380.813 272.3 379.113 273.9C377.413 275.5 375.413 276.75 373.113 277.65C370.847 278.55 368.363 279 365.663 279ZM365.613 273.3C367.38 273.3 369.013 273 370.513 272.4C372.013 271.8 373.313 270.95 374.413 269.85C375.513 268.716 376.363 267.416 376.963 265.95C377.597 264.45 377.913 262.8 377.913 261C377.913 259.2 377.597 257.566 376.963 256.1C376.363 254.6 375.513 253.3 374.413 252.2C373.313 251.067 372.013 250.2 370.513 249.6C369.013 249 367.38 248.7 365.613 248.7C363.847 248.7 362.213 249 360.713 249.6C359.247 250.2 357.947 251.067 356.814 252.2C355.714 253.3 354.847 254.6 354.214 256.1C353.614 257.566 353.314 259.2 353.314 261C353.314 262.766 353.614 264.4 354.214 265.9C354.847 267.4 355.714 268.716 356.814 269.85C357.914 270.95 359.214 271.8 360.713 272.4C362.213 273 363.847 273.3 365.613 273.3Z" fill="#E0E0E0"/>
<path d="M321.268 259.601H338.718V265.101H321.268V259.601ZM321.818 278.5H315.318V243.501H340.868V248.951H321.818V278.5Z" fill="#E0E0E0"/>
<path d="M260.222 278.5V243.501H274.622C277.722 243.501 280.372 244.001 282.572 245.001C284.805 246.001 286.522 247.434 287.722 249.301C288.922 251.168 289.522 253.384 289.522 255.951C289.522 258.517 288.922 260.734 287.722 262.601C286.522 264.467 284.805 265.901 282.572 266.901C280.372 267.901 277.722 268.401 274.622 268.401H263.822L266.722 265.351V278.5H260.222ZM266.722 266.051L263.822 262.901H274.322C277.189 262.901 279.339 262.301 280.772 261.101C282.239 259.867 282.972 258.151 282.972 255.951C282.972 253.718 282.239 252.001 280.772 250.801C279.339 249.601 277.189 249.001 274.322 249.001H263.822L266.722 245.801V266.051Z" fill="#E0E0E0"/>
<path d="M237.593 279C234.927 279 232.443 278.566 230.143 277.7C227.877 276.8 225.893 275.55 224.193 273.95C222.527 272.316 221.227 270.4 220.294 268.2C219.36 266 218.894 263.6 218.894 261C218.894 258.4 219.36 256 220.294 253.8C221.227 251.6 222.544 249.7 224.243 248.1C225.943 246.467 227.927 245.217 230.193 244.35C232.46 243.45 234.943 243 237.643 243C240.51 243 243.127 243.5 245.493 244.5C247.86 245.467 249.86 246.917 251.493 248.85L247.293 252.8C246.027 251.433 244.61 250.417 243.043 249.75C241.477 249.05 239.777 248.7 237.943 248.7C236.11 248.7 234.427 249 232.893 249.6C231.393 250.2 230.077 251.05 228.943 252.15C227.843 253.25 226.977 254.55 226.343 256.05C225.743 257.55 225.443 259.2 225.443 261C225.443 262.8 225.743 264.45 226.343 265.95C226.977 267.45 227.843 268.75 228.943 269.85C230.077 270.95 231.393 271.8 232.893 272.4C234.427 273 236.11 273.3 237.943 273.3C239.777 273.3 241.477 272.966 243.043 272.3C244.61 271.6 246.027 270.55 247.293 269.15L251.493 273.15C249.86 275.05 247.86 276.5 245.493 277.5C243.127 278.5 240.493 279 237.593 279Z" fill="#E0E0E0"/>
<path d="M198.3 279C195.567 279 192.95 278.616 190.45 277.85C187.95 277.05 185.967 276.033 184.5 274.8L186.75 269.75C188.15 270.85 189.883 271.766 191.95 272.5C194.017 273.233 196.133 273.6 198.3 273.6C200.133 273.6 201.616 273.4 202.75 273C203.883 272.6 204.716 272.066 205.25 271.4C205.783 270.7 206.05 269.916 206.05 269.05C206.05 267.983 205.666 267.133 204.9 266.5C204.133 265.833 203.133 265.316 201.9 264.95C200.7 264.55 199.35 264.183 197.85 263.85C196.383 263.516 194.9 263.133 193.4 262.7C191.933 262.233 190.583 261.65 189.35 260.95C188.15 260.216 187.167 259.25 186.4 258.05C185.633 256.85 185.25 255.317 185.25 253.45C185.25 251.55 185.75 249.817 186.75 248.25C187.783 246.65 189.333 245.383 191.4 244.45C193.5 243.483 196.15 243 199.35 243C201.45 243 203.533 243.267 205.6 243.8C207.666 244.333 209.466 245.1 211 246.1L208.95 251.15C207.383 250.217 205.766 249.533 204.1 249.1C202.433 248.633 200.833 248.4 199.3 248.4C197.5 248.4 196.033 248.617 194.9 249.05C193.8 249.483 192.983 250.05 192.45 250.75C191.95 251.45 191.7 252.25 191.7 253.15C191.7 254.217 192.067 255.083 192.8 255.75C193.567 256.383 194.55 256.883 195.75 257.25C196.983 257.616 198.35 257.983 199.85 258.35C201.35 258.683 202.833 259.066 204.3 259.5C205.8 259.933 207.15 260.5 208.35 261.2C209.583 261.9 210.566 262.85 211.3 264.05C212.066 265.25 212.45 266.766 212.45 268.6C212.45 270.466 211.933 272.2 210.9 273.8C209.9 275.366 208.35 276.633 206.25 277.6C204.15 278.533 201.5 279 198.3 279Z" fill="#E0E0E0"/>
<path d="M-8.89273e-06 31.5L-9.88081e-07 247.5L0 274.5L171 274.5L171 247.5L36 247.5L36 31.5L297 31.5L297 4.50002L0 4.5L-8.89273e-06 31.5Z" fill="#E0E0E0"/>
<path d="M837 31.5L837 247.5L702 247.5L702 274.5L873 274.5L873 247.5L873 31.5L873 4.50002L576 4.5L576 31.5L837 31.5Z" fill="#E0E0E0"/>
</svg>
